<?xml version="1.0" encoding="UTF-8" standalone="no"?>
<svg
   xmlns:dc="http://purl.org/dc/elements/1.1/"
   xmlns:cc="http://creativecommons.org/ns#"
   xmlns:rdf="http://www.w3.org/1999/02/22-rdf-syntax-ns#"
   xmlns:svg="http://www.w3.org/2000/svg"
   xmlns="http://www.w3.org/2000/svg"
   xmlns:sodipodi="http://sodipodi.sourceforge.net/DTD/sodipodi-0.dtd"
   xmlns:inkscape="http://www.inkscape.org/namespaces/inkscape"
   width="42.630001"
   height="39.27"
   viewBox="0 0 42.630001 39.27"
   version="1.1"
   id="svg125"
   sodipodi:docname="burp.svg"
   inkscape:version="0.92.4 (5da689c313, 2019-01-14)">
  <metadata
     id="metadata131">
    <rdf:RDF>
      <cc:Work
         rdf:about="">
        <dc:format>image/svg+xml</dc:format>
        <dc:type
           rdf:resource="http://purl.org/dc/dcmitype/StillImage" />
      </cc:Work>
    </rdf:RDF>
  </metadata>
  <defs
     id="defs129" />
  <sodipodi:namedview
     pagecolor="#ffffff"
     bordercolor="#666666"
     borderopacity="1"
     objecttolerance="10"
     gridtolerance="10"
     guidetolerance="10"
     inkscape:pageopacity="0"
     inkscape:pageshadow="2"
     inkscape:window-width="1920"
     inkscape:window-height="1001"
     id="namedview127"
     showgrid="false"
     inkscape:zoom="1.776"
     inkscape:cx="125"
     inkscape:cy="12.75"
     inkscape:window-x="-9"
     inkscape:window-y="-9"
     inkscape:window-maximized="1"
     inkscape:current-layer="svg125" />
  <title
     id="title73">PortSwigger Logo</title>
  <polygon
     points="0,4.51 20.81,0.48 20.81,39.75 0,35.76 "
     id="polygon119"
     style="fill:#404041"
     transform="translate(0,-0.48)" />
  <polygon
     points="42.63,4.51 21.78,0.48 21.78,39.75 42.63,35.76 "
     id="polygon121"
     style="fill:#ff6633"
     transform="translate(0,-0.48)" />
  <path
     d="m 31.66,4.75 c 0.72,0.15 1.06,0.21 1.78,0.34 v 5.43 c -2.09,2 -3.13,3.12 -5.22,5.49 2.09,0.1 3.13,0.13 5.22,0.22 v 5.29 c 2.87,-0.1 4.31,-0.13 7.13,-0.22 a 85.64,85.64 0 0 0 -7.13,8.11 v 4.21 c -0.72,0.15 -1.06,0.22 -1.78,0.34 v -4.9 c 2.09,-2.62 3.12,-3.86 5.19,-6.14 l -5.22,0.28 v -5.48 l -7.13,-0.2 a 91.79,91.79 0 0 1 7.13,-7.89 v -2.2 c 0.03,-1.06 0.03,-1.59 0.03,-2.68 z"
     id="path123"
     inkscape:connector-curvature="0"
     style="fill:#ffffff" />
</svg>
