<?xml version="1.0" encoding="UTF-8" standalone="no"?>
<svg
   xmlns:dc="http://purl.org/dc/elements/1.1/"
   xmlns:cc="http://creativecommons.org/ns#"
   xmlns:rdf="http://www.w3.org/1999/02/22-rdf-syntax-ns#"
   xmlns:svg="http://www.w3.org/2000/svg"
   xmlns="http://www.w3.org/2000/svg"
   xmlns:sodipodi="http://sodipodi.sourceforge.net/DTD/sodipodi-0.dtd"
   xmlns:inkscape="http://www.inkscape.org/namespaces/inkscape"
   width="3694.9871"
   height="3654.573"
   viewBox="0 0 3694.9871 3654.573"
   version="1.1"
   xml:space="preserve"
   style="clip-rule:evenodd;fill-rule:evenodd;stroke-linejoin:round;stroke-miterlimit:2"
   id="svg26"
   sodipodi:docname="csis_transparent.svg"
   inkscape:version="1.0.2-2 (e86c870879, 2021-01-15)"><metadata
     id="metadata32"><rdf:RDF><cc:Work
         rdf:about=""><dc:format>image/svg+xml</dc:format><dc:type
           rdf:resource="http://purl.org/dc/dcmitype/StillImage" /><dc:title></dc:title></cc:Work></rdf:RDF></metadata><defs
     id="defs30" /><sodipodi:namedview
     pagecolor="#ffffff"
     bordercolor="#666666"
     borderopacity="1"
     objecttolerance="10"
     gridtolerance="10"
     guidetolerance="10"
     inkscape:pageopacity="0"
     inkscape:pageshadow="2"
     inkscape:window-width="1680"
     inkscape:window-height="979"
     id="namedview28"
     showgrid="false"
     fit-margin-top="1"
     fit-margin-left="1"
     fit-margin-bottom="1"
     fit-margin-right="1"
     inkscape:zoom="0.052103004"
     inkscape:cx="2753.402"
     inkscape:cy="-1594.4095"
     inkscape:window-x="-8"
     inkscape:window-y="-8"
     inkscape:window-maximized="1"
     inkscape:current-layer="svg26" /><g
     id="g22"
     transform="translate(0.997,1.003)"><path
       d="M 3678.1,2065.31 C 3566.088,2916.364 2864.029,3584.62 1992.94,3652.57 V 2511.96 c 0,0 233.454,194.875 385.17,321.525 71.534,59.717 177.509,54.196 242.342,-12.621 3.542,-3.646 7.096,-7.312 10.654,-10.975 18.713,-19.287 100,-89.633 123.163,-111.733 3.696,-3.529 7.391,-7.054 11.071,-10.563 67.379,-64.296 72.945,-169.383 12.725,-240.321 -127.713,-150.454 -324.234,-381.954 -324.234,-381.954 h 1224.27 z"
       style="fill:#9f1b26"
       id="path14" /><path
       d="m 13.096,2054.09 h 1219.24 c 0,0 -196.516,231.504 -324.233,381.954 -60.217,70.937 -54.65,176.029 12.729,240.321 3.679,3.512 7.371,7.037 11.067,10.562 24.012,22.909 108.333,100.992 129.637,122.95 3.559,3.663 7.113,7.329 10.654,10.975 64.834,66.817 170.809,72.338 242.342,12.621 151.717,-126.65 385.171,-321.525 385.171,-321.525 v 1140.61 C 824.811,3584.299 120.463,2910.533 13.103,2054.088 Z"
       style="fill:#bd202e"
       id="path16" /><path
       d="m 1992.94,0 c 934.054,72.875 1673.72,835.917 1700.05,1774.51 H 2453.83 c 0,0 196.521,-231.5 324.234,-381.954 60.22,-70.937 54.654,-176.029 -12.725,-240.321 -3.68,-3.512 -7.375,-7.033 -11.071,-10.562 -21.571,-20.584 -98.296,-109.642 -123.163,-135.267 -3.558,-3.667 -7.112,-7.329 -10.654,-10.979 -64.833,-66.817 -170.808,-72.333 -242.342,-12.621 -151.716,126.65 -385.17,321.529 -385.17,321.529 V 0.005 Z"
       style="fill:#023242"
       id="path18" /><path
       d="m 1699.7,0 v 1304.33 c 0,0 -233.454,-194.879 -385.171,-321.529 -71.533,-59.712 -177.508,-54.196 -242.342,12.621 -3.541,3.65 -7.095,7.313 -10.654,10.979 -21.591,22.25 -105.7,101.213 -129.637,124.05 -3.696,3.529 -7.388,7.054 -11.067,10.567 -67.379,64.292 -72.946,169.379 -12.729,240.316 127.717,150.455 324.233,381.959 324.233,381.959 H 0.003 l 0.067,-1.913 c 0.946,-26.321 2.416,-52.616 4.475,-78.875 4.071,-51.875 10.358,-103.575 18.862,-154.916 18.979,-114.567 49.029,-227.305 89.65,-336.192 43.096,-115.525 98.063,-226.663 163.7,-331.233 67.479,-107.509 146.2,-208.05 234.459,-299.567 92.02,-95.425 194.387,-181.021 304.816,-254.788 107.446,-71.775 222.496,-132.325 342.709,-180.216 103.812,-41.359 211.433,-73.259 321.104,-95.184 72.171,-14.425 145.183,-24.479 218.571,-30.312 l 1.287,-0.1 z"
       style="fill:#005673"
       id="path20" /></g></svg>
