<?xml version="1.0" encoding="UTF-8" standalone="no"?>
<svg
   viewBox="0 0 176.99998 108.53"
   version="1.1"
   id="svg60"
   sodipodi:docname="matrix42.svg"
   width="177"
   height="108.53"
   inkscape:version="1.2.2 (b0a8486541, 2022-12-01)"
   xmlns:inkscape="http://www.inkscape.org/namespaces/inkscape"
   xmlns:sodipodi="http://sodipodi.sourceforge.net/DTD/sodipodi-0.dtd"
   xmlns="http://www.w3.org/2000/svg"
   xmlns:svg="http://www.w3.org/2000/svg"
   xmlns:rdf="http://www.w3.org/1999/02/22-rdf-syntax-ns#"
   xmlns:cc="http://creativecommons.org/ns#"
   xmlns:dc="http://purl.org/dc/elements/1.1/">
  <sodipodi:namedview
     id="namedview62"
     pagecolor="#ffffff"
     bordercolor="#000000"
     borderopacity="0.25"
     inkscape:showpageshadow="2"
     inkscape:pageopacity="0.0"
     inkscape:pagecheckerboard="0"
     inkscape:deskcolor="#d1d1d1"
     showgrid="false"
     inkscape:zoom="1.8241699"
     inkscape:cx="338.51014"
     inkscape:cy="52.626678"
     inkscape:window-width="1920"
     inkscape:window-height="1011"
     inkscape:window-x="0"
     inkscape:window-y="0"
     inkscape:window-maximized="1"
     inkscape:current-layer="svg60" />
  <defs
     id="defs47">
    <style
       id="style45">.cls-1{fill:#2b2f34;}.cls-2{fill:#fc8529;}.cls-3{fill:#1d3a53;}</style>
  </defs>
  <title
     id="title49">__Matrix42-Blue</title>
  <g
     id="Layer_3"
     data-name="Layer 3"
     transform="translate(-567.67)">
    <path
       class="cls-2"
       d="m 645.83,1.6 h -44.88 l -33.28,51.92 24.42,37.86 h 24.84 v 17.15 h 28.9 V 91.38 h 12.35 V 63.16 h -12.35 z m -28.9,61.56 H 595.3 L 616.93,29.5 Z m 92.66,18.92 C 734,62.52 743.1,50.66 743.1,35.75 743.1,14.1 726.43,0 701.58,0 c -16,0 -30.78,6.09 -41,18 l 17.31,19.4 c 6.57,-6.73 14.11,-10.58 23.25,-10.58 6.73,0 11.38,4 11.38,9.3 0,8.82 -5,13.31 -48.09,48.1 v 24.36 h 79.47 v -26.5 z"
       id="path53" />
    <path
       class="cls-2"
       d="m 645.83,1.6 h -44.88 l -33.28,51.92 24.42,37.86 h 24.84 v 17.15 h 28.9 V 91.38 h 12.35 V 63.16 h -12.35 z m -28.9,61.56 H 595.3 L 616.93,29.5 Z m 92.66,18.92 C 734,62.52 743.1,50.66 743.1,35.75 743.1,14.1 726.43,0 701.58,0 c -16,0 -30.78,6.09 -41,18 l 17.31,19.4 c 6.57,-6.73 14.11,-10.58 23.25,-10.58 6.73,0 11.38,4 11.38,9.3 0,8.82 -5,13.31 -48.09,48.1 v 24.36 h 79.47 v -26.5 z"
       id="path57" />
  </g>
  <metadata
     id="metadata222">
    <rdf:RDF>
      <cc:Work
         rdf:about="">
        <dc:title>__Matrix42-Blue</dc:title>
      </cc:Work>
    </rdf:RDF>
  </metadata>
</svg>
