<svg xmlns:xlink="http://www.w3.org/1999/xlink" xmlns:ev="http://www.w3.org/2001/xml-events" xmlns="http://www.w3.org/2000/svg" height="804" width="1132" viewBox="0 0 1132 804"><style type="text/css"><![CDATA[
.st2 {fill:#000000;font-family:Arial;font-size:10pt}
.st4 {fill:#1f6391;font-family:Arial;font-size:10pt;font-weight:bold}
.st3 {fill:#1f6391;font-family:Arial;font-size:10pt}
.st1 {fill:#ffffff;font-family:Arial;font-size:10pt}
.st5 {font-weight:normal}
]]></style><defs/><g transform="translate(5,5)" id="page1"><rect stroke="#808080" x="0" height="794" width="1123" y="0" fill="#ffffff"/><g transform="translate(359.02,711.64)" id="table1"><g><path stroke="#7e7e7e" d="M0,0L219.3,0L219.3,32L0,32L0,0z" fill="#3498db"/><text class="st1"><tspan x="96" y="20">Error</tspan></text></g></g><g transform="translate(356.69,119.32)" id="table2"><g><path stroke="#7e7e7e" d="M0,0L219.3,0L219.3,31.9L0,31.9L0,0z" fill="#3498db"/><text class="st1"><tspan x="87" y="19.9">Contact</tspan></text></g><g><path stroke="#7e7e7e" d="M0,31.9L219.3,31.9L219.3,253.9L0,253.9L0,31.9z" fill="#e8eff8"/><text class="st2"><tspan x="13" y="50.9">+ id</tspan><tspan x="13" y="66.9">+ last_name</tspan><tspan x="13" y="82.9">+ first_name</tspan><tspan x="13" y="98.9">+ phone_fixed</tspan><tspan x="13" y="114.9">+ phone_mobile</tspan><tspan x="13" y="130.9">+ gender</tspan><tspan x="13" y="146.9">+ role</tspan><tspan x="13" y="162.9">+ birthdate</tspan><tspan x="13" y="178.9">+ third_id</tspan><tspan x="13" y="194.9">+ people_id</tspan><tspan x="13" y="210.9">+ full_name</tspan><tspan x="13" y="226.9">+ corporation_id</tspan><tspan x="13" y="242.9">+ picture</tspan></text></g></g><g transform="translate(356.69,394.25)" id="table3"><g><path stroke="#7e7e7e" d="M0,0L221.6,0L221.6,44.4L0,44.4L0,0z" fill="#3498db"/><text class="st1"><tspan x="87" y="26.2">Request</tspan></text></g><g><path stroke="#7e7e7e" d="M0,44.4L221.6,44.4L221.6,71.4L0,71.4L0,44.4z" fill="#e8eff8"/><text class="st3"/></g><g><path stroke="#7e7e7e" d="M0,71.4L221.6,71.4L221.6,149.4L0,149.4L0,71.4z" fill="#ffffff"/><text class="st2"><tspan x="13" y="90.4">+ do_list&lt;T>(): ListResponse&lt;T></tspan><tspan x="13" y="106.4">+ do_singular&lt;T>(): T</tspan><tspan x="13" y="122.4"># do(): Hash</tspan></text></g></g><g transform="translate(356.69,564.71)" id="table4"><g><path stroke="#7e7e7e" d="M0,0L221.6,0L221.6,31.9L0,31.9L0,0z" fill="#3498db"/><text class="st1"><tspan x="72" y="19.9">ListResponse</tspan></text></g><g><path stroke="#7e7e7e" d="M0,31.9L221.6,31.9L221.6,125.9L0,125.9L0,31.9z" fill="#e8eff8"/><text class="st3"><tspan x="13" y="50.9">+ method</tspan><tspan x="13" y="66.9">+ per_page</tspan><tspan x="13" y="82.9">+ page</tspan><tspan x="13" y="98.9">+ total</tspan><tspan x="13" y="114.9">+ data</tspan></text></g></g><g transform="translate(773.45,44.36)" id="table5"><g><path stroke="#7e7e7e" d="M0,0L297.5,0L297.5,31.3L0,31.3L0,0z" fill="#3498db"/><text class="st1"><tspan x="125" y="19.6">Supplier</tspan></text></g><g><path stroke="#7e7e7e" d="M0,31.3L297.5,31.3L297.5,557.3L0,557.3L0,31.3z" fill="#e8eff8"/><text class="st2"><tspan x="13" y="50.3">+ id</tspan><tspan x="13" y="66.3">+ third_id</tspan><tspan x="13" y="82.3">+ owner_id</tspan><tspan x="13" y="98.3">+ corporation_id</tspan><tspan x="13" y="114.3">+ name</tspan><tspan x="13" y="130.3">+ full_name</tspan><tspan x="13" y="146.3">+ email</tspan><tspan x="13" y="162.3">+ website_url</tspan><tspan x="13" y="178.3">+ phone_fixed</tspan><tspan x="13" y="194.3">+ fax</tspan><tspan x="13" y="210.3">+ phone_mobile</tspan><tspan x="13" y="226.3">+ apenaf</tspan><tspan x="13" y="242.3">+ rcs</tspan><tspan x="13" y="258.3">+ siret</tspan><tspan x="13" y="274.3">+ siren</tspan><tspan x="13" y="290.3">+ vat_number</tspan><tspan x="13" y="306.3">+ address</tspan><tspan x="13" y="322.3">+ delivery_address</tspan><tspan x="13" y="338.3">+ avatar_url</tspan><tspan x="13" y="354.3">+ type</tspan><tspan x="13" y="370.3">+ capital</tspan><tspan x="13" y="386.3">+ joined_at</tspan><tspan x="13" y="402.3">+ aux_code</tspan><tspan x="13" y="418.3">+ accounting_code</tspan><tspan x="13" y="434.3">+ sticky_note</tspan><tspan x="13" y="450.3">+ ident</tspan><tspan x="13" y="466.3">+ rate_category</tspan><tspan x="13" y="482.3">+ picture</tspan><tspan x="13" y="498.3">+ corporation_type</tspan><tspan x="13" y="514.3">+ contacts</tspan><tspan x="13" y="530.3">+ main_contact</tspan><tspan x="13" y="546.3">+ main_contact_id</tspan></text></g><g><path stroke="#7e7e7e" d="M0,557.3L297.5,557.3L297.5,699.3L0,699.3L0,557.3z" fill="#ffffff"/><text class="st2"><tspan x="13" y="576.3">+ active?: bool</tspan><tspan x="13" y="592.3">+ massmailing_unsubscribed?: bool</tspan><tspan x="13" y="608.3">+ massmailing_unsubscribed_sms?: bool</tspan><tspan x="13" y="624.3">+ phoning_unsubscribed?: bool</tspan><tspan x="13" y="640.3">+ massmailing_unsubscribed_mail?: bool</tspan><tspan x="13" y="656.3">+  massmailing_unsubscribed_custom?: bool</tspan><tspan x="13" y="672.3">+ self.list(opts): ListResponse&lt;Supplier></tspan><tspan x="13" y="688.3">+ self.get(supplier_id): Supplier</tspan></text></g></g><g transform="translate(611.58,44.36)" id="table6"><g><path stroke="#7e7e7e" d="M0,0L128.6,0L128.6,31.3L0,31.3L0,0z" fill="#3498db"/><text class="st1"><tspan x="41" y="19.6">Address</tspan></text></g><g><path stroke="#7e7e7e" d="M0,31.3L128.6,31.3L128.6,237.3L0,237.3L0,31.3z" fill="#e8eff8"/><text class="st2"><tspan x="13" y="50.3">+ id</tspan><tspan x="13" y="66.3">+ name</tspan><tspan x="13" y="82.3">+ first_line</tspan><tspan x="13" y="98.3">+ second_line</tspan><tspan x="13" y="114.3">+ third_line</tspan><tspan x="13" y="130.3">+ fourth_line</tspan><tspan x="13" y="146.3">+ zipcode</tspan><tspan x="13" y="162.3">+ city</tspan><tspan x="13" y="178.3">+ state</tspan><tspan x="13" y="194.3">+ latitude</tspan><tspan x="13" y="210.3">+ longitude</tspan><tspan x="13" y="226.3">+ country_code</tspan></text></g><g><path stroke="#7e7e7e" d="M0,237.3L128.6,237.3L128.6,268.5L0,268.5L0,237.3z" fill="#ffffff"/><text class="st2"><tspan x="13" y="256.3">+ geocode: String</tspan></text></g></g><g transform="translate(43,119.32)" id="table7"><g><path stroke="#7e7e7e" d="M0,0L290.1,0L290.1,31.3L0,31.3L0,0z" fill="#3498db"/><text class="st1"><tspan x="129" y="19.6">Client</tspan></text></g><g><path stroke="#7e7e7e" d="M0,31.3L290.1,31.3L290.1,493.3L0,493.3L0,31.3z" fill="#e8eff8"/><text class="st2"><tspan x="13" y="50.3">+ id</tspan><tspan x="13" y="66.3">+ details_id</tspan><tspan x="13" y="82.3">+ corporation_id</tspan><tspan x="13" y="98.3">+ owner_id</tspan><tspan x="13" y="114.3">+ joined_at</tspan><tspan x="13" y="130.3">+ type</tspan><tspan x="13" y="146.3">+ status</tspan><tspan x="13" y="162.3">+ contacts</tspan><tspan x="13" y="178.3">+ main_contact_id</tspan><tspan x="13" y="194.3">+ main_contact</tspan><tspan x="13" y="210.3">+ ident</tspan><tspan x="13" y="226.3">+ accounting_code</tspan><tspan x="13" y="242.3">+ accounting_code_purchase</tspan><tspan x="13" y="258.3">+ aux_code</tspan><tspan x="13" y="274.3">+ sticky_note</tspan><tspan x="13" y="290.3">+ twitter</tspan><tspan x="13" y="306.3">+ facebook</tspan><tspan x="13" y="322.3">+ viadeo</tspan><tspan x="13" y="338.3">+ rate_category</tspan><tspan x="13" y="354.3">+ was_prospect</tspan><tspan x="13" y="370.3">+ source</tspan><tspan x="13" y="386.3">+ origin_id</tspan><tspan x="13" y="402.3">+ origin_type</tspan><tspan x="13" y="418.3">+ ten_last_type</tspan><tspan x="13" y="434.3">+ firm_search_url</tspan><tspan x="13" y="450.3">+ lang</tspan><tspan x="13" y="466.3">+ name</tspan><tspan x="13" y="482.3">+ website_url</tspan></text></g><g><path stroke="#7e7e7e" d="M0,493.3L290.1,493.3L290.1,619.3L0,619.3L0,493.3z" fill="#ffffff"/><text class="st4"><tspan x="13" class="st5" y="512.3">+ active?: bool</tspan><tspan x="13" class="st5" y="528.3">+ was_prospect?: bool</tspan><tspan x="13" class="st5" y="544.3">+ massmailing_unsubscribed?: bool</tspan><tspan x="13" class="st5" y="560.3">+ massmailing_unsubscribed_mail?: bool</tspan><tspan x="13" class="st5" y="576.3">+ massmailing_unsubscribed_custom?: bool</tspan><tspan x="13" class="st5" y="592.3">+ self.list(opts): ListResponse&lt;Client></tspan><tspan x="13" class="st5" y="608.3">+ self.get(client_id): Client</tspan></text></g></g><g transform="translate(675.89,312.91)" id="shape8"><path stroke="#2d85c1" d="M0,18.7L0,81.1L97.6,81.1" fill="none"/><path stroke-linecap="round" stroke="#2d85c1" stroke-width="1" stroke-linejoin="round" d="M0,0L-5.4,9.4L0,18.7L5.4,9.4L0,0" fill="none"/></g><g transform="translate(43,44.36)"><path stroke="#2da2bf" id="shape9" d="M85,23M85,23M85,23M85,23M85,23M85,23M85,23M85,23" fill="none"/><g id="shape10"><path d="M0,0L0,46L170,46L170,13.4L146.2,0L0,0z" fill="#2da2bf"/><path stroke="#2da2bf" d="M0,0L0,46L170,46L170,13.4L146.2,0L0,0zM170,13.4L146.2,13.4L146.2,0" fill="none"/><text class="st1"><tspan x="60" y="27">lib/sellsy</tspan></text></g></g></g></svg>