<svg xmlns:xlink="http://www.w3.org/1999/xlink" xmlns:ev="http://www.w3.org/2001/xml-events" xmlns="http://www.w3.org/2000/svg" height="804" width="1132" viewBox="0 0 1132 804"><style type="text/css"><![CDATA[
.st2 {fill:#1f6391;font-family:Arial;font-size:10pt}
.st3 {fill:#1f6391;font-family:Arial;font-size:9pt}
.st1 {fill:#ffffff;font-family:Arial;font-size:10pt}
.st4 {font-size:10pt}
]]></style><defs/><g transform="translate(5,5)" id="page1"><rect stroke="#808080" x="0" height="794" width="1123" y="0" fill="#ffffff"/><g transform="translate(43,43)"><path stroke="#2da2bf" id="shape1" d="M47,23M47,23M47,23M47,23M47,23M47,23M47,23M47,23" fill="none"/><g id="shape2"><path d="M0,0L0,46L94,46L94,13.4L80.8,0L0,0z" fill="#2da2bf"/><path stroke="#2da2bf" d="M0,0L0,46L94,46L94,13.4L80.8,0L0,0zM94,13.4L80.8,13.4L80.8,0" fill="none"/><text class="st1"><tspan x="20" y="27">lib/qualys</tspan></text></g></g><g transform="translate(614,384)" id="table3"><g><path stroke="#7e7e7e" d="M0,0L208,0L208,30L0,30L0,0z" fill="#3498db"/><text class="st1"><tspan x="64" y="19">ExploitSource</tspan></text></g><g><path stroke="#7e7e7e" d="M0,30L208,30L208,76L0,76L0,30z" fill="#e8eff8"/><text class="st2"><tspan x="13" y="49">+ name</tspan><tspan x="13" y="65">+ exploits</tspan></text></g><g><path stroke="#7e7e7e" d="M0,76L208,76L208,103L0,103L0,76z" fill="#ffffff"/><text class="st2"/></g></g><g transform="translate(614,526.91)" id="table4"><g><path stroke="#7e7e7e" d="M0,0L208,0L208,54.2L0,54.2L0,0z" fill="#3498db"/><text class="st1"><tspan x="84" y="31.1">Exploit</tspan></text></g><g><path stroke="#7e7e7e" d="M0,54.2L208,54.2L208,166.3L0,166.3L0,54.2z" fill="#e8eff8"/><text class="st2"><tspan x="13" y="73.2">+ reference</tspan><tspan x="13" y="89.2">+ description</tspan><tspan x="13" y="105.2">+ link</tspan></text></g><g><path stroke="#7e7e7e" d="M0,166.3L208,166.3L208,215.1L0,215.1L0,166.3z" fill="#ffffff"/><text class="st2"/></g></g><g transform="translate(613,57)" id="table5"><g><path stroke="#7e7e7e" d="M0,0L453,0L453,30L0,30L0,0z" fill="#3498db"/><text class="st1"><tspan x="203" y="19">Request</tspan></text></g><g><path stroke="#7e7e7e" d="M0,30L453,30L453,57L0,57L0,30z" fill="#e8eff8"/><text class="st2"/></g><g><path stroke="#7e7e7e" d="M0,57L453,57L453,119L0,119L0,57z" fill="#ffffff"/><text class="st2"><tspan x="13" y="76">+ self.do_list&lt;T>(base_xpath, api_path, api_params): ListResponse&lt;T></tspan><tspan x="13" y="92">+ self.do_singular&lt;T>(api_path, api_params): T</tspan><tspan x="13" y="108"># self.do_request(api_path, api_params): Hash | Nokogiri::XML::Document</tspan></text></g></g><g transform="translate(612,228.27)" id="table6"><g><path stroke="#7e7e7e" d="M0,0L454,0L454,31.3L0,31.3L0,0z" fill="#3498db"/><text class="st1"><tspan x="188" y="19.6">ListResponse</tspan></text></g><g><path stroke="#7e7e7e" d="M0,31.3L454,31.3L454,64.7L0,64.7L0,31.3z" fill="#e8eff8"/><text class="st3"><tspan x="13" class="st4" y="50.3">Attributes</tspan></text></g><g><path stroke="#7e7e7e" d="M0,64.7L454,64.7L454,96L0,96L0,64.7z" fill="#ffffff"/><text class="st2"/></g></g><g transform="translate(850,384)" id="table7"><g><path stroke="#7e7e7e" d="M0,0L217,0L217,31.3L0,31.3L0,0z" fill="#3498db"/><text class="st1"><tspan x="75" y="19.6">ScanResult</tspan></text></g><g><path stroke="#7e7e7e" d="M0,31.3L217,31.3L217,64.7L0,64.7L0,31.3z" fill="#e8eff8"/><text class="st2"><tspan x="13" y="50.3">+ results</tspan></text></g><g><path stroke="#7e7e7e" d="M0,64.7L217,64.7L217,96L0,96L0,64.7z" fill="#ffffff"/><text class="st2"><tspan x="13" y="83.7">+ self.list(scan_ref): ScanResult</tspan></text></g></g><g transform="translate(850,526.91)" id="table8"><g><path stroke="#7e7e7e" d="M0,0L217,0L217,30L0,30L0,0z" fill="#3498db"/><text class="st1"><tspan x="82" y="19">ScanTest</tspan></text></g><g><path stroke="#7e7e7e" d="M0,30L217,30L217,188L0,188L0,30z" fill="#e8eff8"/><text class="st2"><tspan x="13" y="49">+ ip</tspan><tspan x="13" y="65">+ dns</tspan><tspan x="13" y="81">+ netbios</tspan><tspan x="13" y="97">+ qid</tspan><tspan x="13" y="113">+ instance</tspan><tspan x="13" y="129">+ result</tspan><tspan x="13" y="145">+ protocol</tspan><tspan x="13" y="161">+ ssl</tspan><tspan x="13" y="177">+ fqdn</tspan></text></g><g><path stroke="#7e7e7e" d="M0,188L217,188L217,215L0,215L0,188z" fill="#ffffff"/><text class="st2"/></g></g><g transform="translate(187,474.73)" id="table9"><g><path stroke="#7e7e7e" d="M0,0L394,0L394,31.3L0,31.3L0,0z" fill="#3498db"/><text class="st1"><tspan x="182" y="19.6">Scan</tspan></text></g><g><path stroke="#7e7e7e" d="M0,31.3L394,31.3L394,221.3L0,221.3L0,31.3z" fill="#e8eff8"/><text class="st2"><tspan x="13" y="50.3">+ reference</tspan><tspan x="13" y="66.3">+ type</tspan><tspan x="13" y="82.3">+ title</tspan><tspan x="13" y="98.3">+ user_login</tspan><tspan x="13" y="114.3">+ launched</tspan><tspan x="13" y="130.3">+ duration</tspan><tspan x="13" y="146.3">+ processed</tspan><tspan x="13" y="162.3">+ state</tspan><tspan x="13" y="178.3">+ target</tspan><tspan x="13" y="194.3">+ option_title</tspan><tspan x="13" y="210.3">+ option_flag</tspan></text></g><g><path stroke="#7e7e7e" d="M0,221.3L394,221.3L394,267.3L0,267.3L0,221.3z" fill="#ffffff"/><text class="st2"><tspan x="13" y="240.3">+ self.list(opts): ListResponse&lt;Scan></tspan><tspan x="13" y="256.3">+ self.get(): Scan</tspan></text></g></g><g transform="translate(187,57)" id="table10"><g><path stroke="#7e7e7e" d="M0,0L392,0L392,31.3L0,31.3L0,0z" fill="#3498db"/><text class="st1"><tspan x="161" y="19.6">Vulnerability</tspan></text></g><g><path stroke="#7e7e7e" d="M0,31.3L392,31.3L392,349.3L0,349.3L0,31.3z" fill="#e8eff8"/><text class="st2"><tspan x="13" y="50.3">+ qid</tspan><tspan x="13" y="66.3">+ cve_id</tspan><tspan x="13" y="82.3">+ title</tspan><tspan x="13" y="98.3">+ category</tspan><tspan x="13" y="114.3">+ bugtraq_id</tspan><tspan x="13" y="130.3">+ severity</tspan><tspan x="13" y="146.3">+ solution</tspan><tspan x="13" y="162.3">+ solution_fr</tspan><tspan x="13" y="178.3">+ modified</tspan><tspan x="13" y="194.3">+ published</tspan><tspan x="13" y="210.3">+ diagnosis</tspan><tspan x="13" y="226.3">+ diagnosis_fr</tspan><tspan x="13" y="242.3">+ vuln_type</tspan><tspan x="13" y="258.3">+ patchable</tspan><tspan x="13" y="274.3">+ consequence</tspan><tspan x="13" y="290.3">+ pci_flag</tspan><tspan x="13" y="306.3">+ remote</tspan><tspan x="13" y="322.3">+ additional_info</tspan><tspan x="13" y="338.3">+ exploit_srcs </tspan></text></g><g><path stroke="#7e7e7e" d="M0,349.3L392,349.3L392,411.3L0,411.3L0,349.3z" fill="#ffffff"/><text class="st2"><tspan x="13" y="368.3">+ self.list(id_min, id_max): ListResponse&lt;Vulnerability></tspan><tspan x="13" y="384.3">+ self.list_modified_since(last_modification): ListResponse&lt;T></tspan><tspan x="13" y="400.3">+ self.get(id): Vulnerability</tspan></text></g></g><g transform="translate(958.5,526.91)" id="shape11"><path stroke="#2d85c1" d="M0,-18.7L0,-46.9" fill="none"/><path stroke-linecap="round" stroke="#2d85c1" stroke-width="1" stroke-linejoin="round" d="M0,0L5.4,-9.4L0,-18.7L-5.4,-9.4L0,0" fill="none"/></g><g transform="translate(718,526.91)" id="shape12"><path stroke="#2d85c1" d="M0,-18.7L0,-39.9" fill="none"/><path stroke-linecap="round" stroke="#2d85c1" stroke-width="1" stroke-linejoin="round" d="M0,0L5.4,-9.4L0,-18.7L-5.4,-9.4L0,0" fill="none"/></g></g></svg>