<svg xmlns:xlink="http://www.w3.org/1999/xlink" xmlns:ev="http://www.w3.org/2001/xml-events" xmlns="http://www.w3.org/2000/svg" height="1597" width="1132" viewBox="0 0 1132 1597"><style type="text/css"><![CDATA[
.st2 {fill:#1f6391;font-family:Arial;font-size:10pt}
.st1 {fill:#ffffff;font-family:Arial;font-size:10pt}
]]></style><defs/><g transform="translate(5,5)" id="page1"><rect stroke="#808080" x="0" height="1587" width="1123" y="0" fill="#ffffff"/><g transform="translate(47,47)"><path stroke="#2da2bf" id="shape1" d="M47,23M47,23M47,23M47,23M47,23M47,23M47,23M47,23" fill="none"/><g id="shape2"><path d="M0,0L0,46L94,46L94,13.4L80.8,0L0,0z" fill="#2da2bf"/><path stroke="#2da2bf" d="M0,0L0,46L94,46L94,13.4L80.8,0L0,0zM94,13.4L80.8,13.4L80.8,0" fill="none"/><text class="st1"><tspan x="8" y="27">lib/qualys_wa</tspan></text></g></g><g transform="translate(239,292)" id="table3"><g><path stroke="#7e7e7e" d="M0,0L122,0L122,32L0,32L0,0z" fill="#3498db"/><text class="st1"><tspan x="47" y="20">Error</tspan></text></g></g><g transform="translate(47,128.27)" id="table4"><g><path stroke="#7e7e7e" d="M0,0L506,0L506,31.3L0,31.3L0,0z" fill="#3498db"/><text class="st1"><tspan x="229" y="19.6">Request</tspan></text></g><g><path stroke="#7e7e7e" d="M0,31.3L506,31.3L506,64.7L0,64.7L0,31.3z" fill="#e8eff8"/><text class="st2"/></g><g><path stroke="#7e7e7e" d="M0,64.7L506,64.7L506,126.7L0,126.7L0,64.7z" fill="#ffffff"/><text class="st2"><tspan x="13" y="83.7">+ do_list&lt;T>(base_xpath, api_path, api_params): ListResponse&lt;T></tspan><tspan x="13" y="99.7">+ do_singular&lt;T>(base_xpath, api_path, api_params): T</tspan><tspan x="13" y="115.7"># do_request(api_path, api_method, api_params): Hash | Nokogiri::XML::Document</tspan></text></g></g><g transform="translate(47,292)" id="table5"><g><path stroke="#7e7e7e" d="M0,0L122,0L122,31.9L0,31.9L0,0z" fill="#3498db"/><text class="st1"><tspan x="22" y="19.9">ListResponse</tspan></text></g><g><path stroke="#7e7e7e" d="M0,31.9L122,31.9L122,66L0,66L0,31.9z" fill="#e8eff8"/><text class="st2"><tspan x="13" y="50.9">+ data</tspan></text></g></g><g transform="translate(47,395)" id="table6"><g><path stroke="#7e7e7e" d="M0,0L259,0L259,31.3L0,31.3L0,0z" fill="#3498db"/><text class="st1"><tspan x="96" y="19.6">ScanResult</tspan></text></g><g><path stroke="#7e7e7e" d="M0,31.3L259,31.3L259,64.7L0,64.7L0,31.3z" fill="#e8eff8"/><text class="st2"><tspan x="13" y="50.3">+ results</tspan></text></g><g><path stroke="#7e7e7e" d="M0,64.7L259,64.7L259,96L0,96L0,64.7z" fill="#ffffff"/><text class="st2"><tspan x="13" y="83.7">+ self.list(): ListResponse&lt;ScanResult></tspan></text></g></g><g transform="translate(47,570.73)" id="table7"><g><path stroke="#7e7e7e" d="M0,0L260,0L260,31.3L0,31.3L0,0z" fill="#3498db"/><text class="st1"><tspan x="103" y="19.6">ScanTest</tspan></text></g><g><path stroke="#7e7e7e" d="M0,31.3L260,31.3L260,141.3L0,141.3L0,31.3z" fill="#e8eff8"/><text class="st2"><tspan x="13" y="50.3">+ qid</tspan><tspan x="13" y="66.3">+ title</tspan><tspan x="13" y="82.3">+ data</tspan><tspan x="13" y="98.3">+ param</tspan><tspan x="13" y="114.3">+ uri</tspan><tspan x="13" y="130.3">+ content</tspan></text></g><g><path stroke="#7e7e7e" d="M0,141.3L260,141.3L260,172.5L0,172.5L0,141.3z" fill="#ffffff"/><text class="st2"/></g></g><g transform="translate(177,570.73)" id="shape8"><path stroke="#2d85c1" d="M-0.1,-18.7L-0.5,-79.7" fill="none"/><path stroke-linecap="round" stroke="#2d85c1" stroke-width="1" stroke-linejoin="round" d="M0,0L5.3,-9.4L-0.1,-18.7L-5.5,-9.3L0,0" fill="none"/></g><g transform="translate(751,128.27)" id="table9"><g><path stroke="#7e7e7e" d="M0,0L274,0L274,31.3L0,31.3L0,0z" fill="#3498db"/><text class="st1"><tspan x="122" y="19.6">Scan</tspan></text></g><g><path stroke="#7e7e7e" d="M0,31.3L274,31.3L274,797.3L0,797.3L0,31.3z" fill="#e8eff8"/><text class="st2"><tspan x="13" y="50.3">+ id</tspan><tspan x="13" y="66.3">+ name</tspan><tspan x="13" y="82.3">+ reference</tspan><tspan x="13" y="98.3">+ type</tspan><tspan x="13" y="114.3">+ mode</tspan><tspan x="13" y="130.3">+ multi</tspan><tspan x="13" y="146.3">+ progressive_scanning</tspan><tspan x="13" y="162.3">+ web_apps</tspan><tspan x="13" y="178.3">+ dns_override_id</tspan><tspan x="13" y="194.3">+ dns_override_name</tspan><tspan x="13" y="210.3">+ web_app_auth_record_id</tspan><tspan x="13" y="226.3">+ web_app_auth_record_name</tspan><tspan x="13" y="242.3">+ scanner_appliance_type</tspan><tspan x="13" y="258.3">+ scanner_appliance_friendly_name</tspan><tspan x="13" y="274.3">+ cancel_option</tspan><tspan x="13" y="290.3">+ proxy_id</tspan><tspan x="13" y="306.3">+ proxy_name</tspan><tspan x="13" y="322.3">+ proxy_url</tspan><tspan x="13" y="338.3">+ auth_record_option</tspan><tspan x="13" y="354.3">+ profile_option</tspan><tspan x="13" y="370.3">+ scanner_option</tspan><tspan x="13" y="386.3">+ profile_id</tspan><tspan x="13" y="402.3">+ profile_name</tspan><tspan x="13" y="418.3">+ options</tspan><tspan x="13" y="434.3">+ launched</tspan><tspan x="13" y="450.3">+ launched_by_id</tspan><tspan x="13" y="466.3">+ launched_by_username</tspan><tspan x="13" y="482.3">+ launched_by_firstname</tspan><tspan x="13" y="498.3">+ launched_by_lastname</tspan><tspan x="13" y="514.3">+ status</tspan><tspan x="13" y="530.3">+ cancel_mode</tspan><tspan x="13" y="546.3">+ canceled_by_id</tspan><tspan x="13" y="562.3">+ canceled_by_username</tspan><tspan x="13" y="578.3">+ canceled_by_firstname</tspan><tspan x="13" y="594.3">+ canceled_by_lastname</tspan><tspan x="13" y="610.3">+ scan_duration</tspan><tspan x="13" y="626.3">+ crawl_duration</tspan><tspan x="13" y="642.3">+ test_duration</tspan><tspan x="13" y="658.3">+ links_crawled</tspan><tspan x="13" y="674.3">+ nb_requests</tspan><tspan x="13" y="690.3">+ result_status</tspan><tspan x="13" y="706.3">+ auth_status</tspan><tspan x="13" y="722.3">+ os</tspan><tspan x="13" y="738.3">+ vulns</tspan><tspan x="13" y="754.3">+ sensitive_contents</tspan><tspan x="13" y="770.3">+ informations_gathered</tspan><tspan x="13" y="786.3">+ send_mail</tspan></text></g><g><path stroke="#7e7e7e" d="M0,797.3L274,797.3L274,843.3L0,843.3L0,797.3z" fill="#ffffff"/><text class="st2"><tspan x="13" y="816.3">+ self.list(): ListResponse&lt;Scan></tspan><tspan x="13" y="832.3">+ self.get(scan_ref): Scan</tspan></text></g></g><g transform="translate(403.5,570.73)" id="table10"><g><path stroke="#7e7e7e" d="M0,0L229.5,0L229.5,31.9L0,31.9L0,0z" fill="#3498db"/><text class="st1"><tspan x="79" y="19.9">Vulnerability</tspan></text></g><g><path stroke="#7e7e7e" d="M0,31.9L229.5,31.9L229.5,157.9L0,157.9L0,31.9z" fill="#e8eff8"/><text class="st2"><tspan x="13" y="50.9">+ qid</tspan><tspan x="13" y="66.9">+ title</tspan><tspan x="13" y="82.9">+ uri</tspan><tspan x="13" y="98.9">+ param</tspan><tspan x="13" y="114.9">+ content</tspan><tspan x="13" y="130.9">+ data</tspan><tspan x="13" y="146.9">+ instances</tspan></text></g></g><g transform="translate(403.5,395)" id="table11"><g><path stroke="#7e7e7e" d="M0,0L229.5,0L229.5,31.9L0,31.9L0,0z" fill="#3498db"/><text class="st1"><tspan x="90" y="19.9">WebApp</tspan></text></g><g><path stroke="#7e7e7e" d="M0,31.9L229.5,31.9L229.5,93.9L0,93.9L0,31.9z" fill="#e8eff8"/><text class="st2"><tspan x="13" y="50.9">+ id</tspan><tspan x="13" y="66.9">+ name</tspan><tspan x="13" y="82.9">+ url</tspan></text></g></g><g transform="translate(633,441.94)" id="shape12"><path stroke="#2d85c1" d="M13.8,12.6L118,108" fill="none"/><path stroke-linecap="round" stroke="#2d85c1" stroke-width="1" stroke-linejoin="round" d="M0,0L3.3,10.3L13.8,12.6L10.5,2.3L0,0" fill="none"/></g><g transform="translate(633,649.67)" id="shape13"><path stroke="#2d85c1" d="M14.3,-12.1L118,-99.8" fill="none"/><path stroke-linecap="round" stroke="#2d85c1" stroke-width="1" stroke-linejoin="round" d="M0,0L10.6,-1.9L14.3,-12.1L3.7,-10.2L0,0" fill="none"/></g></g></svg>