<svg id="Layer_1" data-name="Layer 1" xmlns="http://www.w3.org/2000/svg" viewBox="0 0 103.7 68.4"><defs><style>.cls-1{fill:#02797e;}.cls-2{fill:#fff;}</style></defs><title>pci-logo2</title><polyline class="cls-1" points="103.7 43.2 23.4 68.4 0 4.7 84.3 0 103.7 43.2"/><path class="cls-2" d="M43,30.4a8.53,8.53,0,0,1-4.1,7.4,15.35,15.35,0,0,1-4.7,1.8,28,28,0,0,1-6.1.6H26.5v8.2H16.1V21.1H28.3c4.6,0,8.2.8,10.8,2.3a7.59,7.59,0,0,1,3.9,7m-10,.1c0-2.4-1.8-3.6-5.3-3.6H26.4v7.3h1.2a7.41,7.41,0,0,0,4-.9A3,3,0,0,0,33,30.5Z"/><path class="cls-2" d="M68.8,48.4a29.5,29.5,0,0,1-5.5.5,25.68,25.68,0,0,1-7.7-1,18.42,18.42,0,0,1-5.8-2.8,11.69,11.69,0,0,1-3.6-4.4A14,14,0,0,1,45,34.9a12.65,12.65,0,0,1,1.3-5.8A14.38,14.38,0,0,1,50,24.6a19.11,19.11,0,0,1,5.7-2.9,23.65,23.65,0,0,1,7.2-1,32.79,32.79,0,0,1,5.6.4,15.45,15.45,0,0,1,3,.9v7.3A12.21,12.21,0,0,0,68,27.9a14,14,0,0,0-4.1-.6,9,9,0,0,0-5.8,1.9,6.89,6.89,0,0,0-2.2,5.6,7.25,7.25,0,0,0,.7,3.3,7.1,7.1,0,0,0,1.9,2.3,8.18,8.18,0,0,0,2.8,1.4,12.7,12.7,0,0,0,3.4.5,15.53,15.53,0,0,0,3.7-.4,20.7,20.7,0,0,0,3.8-1.2v6.9c-1.6.4-1.8.5-3.4.8"/><rect class="cls-2" x="76.5" y="21.1" width="10.5" height="27.4"/><path class="cls-2" d="M88.1,12.5a5.37,5.37,0,0,1-1.8,4.3,6.86,6.86,0,0,1-4.5,1.6,6.37,6.37,0,0,1-4.5-1.6,5.37,5.37,0,0,1-1.8-4.3,5.58,5.58,0,0,1,1.8-4.4,7.13,7.13,0,0,1,9,0,5.45,5.45,0,0,1,1.8,4.4"/></svg>